<?xml version="1.0" encoding="utf-8"?>
<!-- Uploaded to: SVG Repo, www.svgrepo.com, Generator: SVG Repo Mixer Tools -->
<svg fill="#42b6f5" width="800px" height="800px" viewBox="-4.5 0 32 32" version="1.1" xmlns="http://www.w3.org/2000/svg">
<title>heartbeat</title>
<path d="M10.24 23.84c-0.040 0-0.040 0-0.080 0-0.4-0.040-0.72-0.36-0.76-0.76l-1-9.96-0.88 2.72c-0.12 0.36-0.44 0.56-0.8 0.56h-5.88c-0.48 0-0.84-0.36-0.84-0.8s0.36-0.84 0.84-0.84h5.32l1.92-6c0.12-0.36 0.48-0.6 0.88-0.56s0.68 0.36 0.72 0.76l0.96 9.72 2.040-6.96c0.12-0.36 0.4-0.6 0.8-0.6 0.36 0 0.68 0.28 0.8 0.64l1.12 4.84 0.84-1.24c0.16-0.24 0.4-0.36 0.68-0.36h5.28c0.44 0 0.84 0.36 0.84 0.84 0 0.44-0.36 0.84-0.84 0.84h-4.84l-1.64 2.44c-0.2 0.28-0.52 0.4-0.84 0.36s-0.6-0.32-0.64-0.64l-0.84-3.6-2.36 8.080c-0.12 0.28-0.44 0.52-0.8 0.52z"></path>
</svg>